<?xml version="1.0" encoding="UTF-8"?>
<svg id="Layer_2" data-name="Layer 2" xmlns="http://www.w3.org/2000/svg" viewBox="0 0 384 384">
  <defs>
    <style>
      .cls-1 {
        fill: #040404;
      }

      .cls-2 {
        fill: #010101;
      }

      .cls-3 {
        fill: #050505;
      }

      .cls-4 {
        fill: #020303;
      }

      .cls-5 {
        fill: #fdcb68;
      }

      .cls-6 {
        fill: #fafafa;
      }

      .cls-7 {
        fill: #fdfdfd;
      }

      .cls-8 {
        fill: #9fc7fd;
      }

      .cls-9 {
        fill: #ced2dd;
      }

      .cls-10 {
        fill: #cdd1dd;
      }

      .cls-11 {
        fill: #caceda;
      }

      .cls-12 {
        fill: #cbcfdb;
      }
    </style>
  </defs>
  <g id="Layer_1-2" data-name="Layer 1">
    <g>
      <path class="cls-7" d="M0,326.25C0,217.5,0,108.75,0,0H218.25c-3.24,2.17-6.03,4.71-4.91,9.09,1.55,6.03,3.25,12.03,5.1,17.98,1.29,4.12,5.25,6.16,9.19,5.09,3.96-1.07,6.2-5.1,5.08-9.44-1.28-4.94-2.83-9.82-4.06-14.78-.88-3.54-2.58-6.3-5.9-7.94h161.25V357c-.2-.12-.53-.19-.58-.35-4.19-12.61-11.33-17.72-24.68-17.65-5.8,.03-7.97,1.78-9.33,7.48-4.92,0-9.85,0-14.77,0-.99-4.88-3.45-7.36-7.4-7.46-4.06-.1-6.62,2.35-7.83,7.47-4.92,0-9.85,0-14.77,0-1.13-5.48-3.44-7.46-8.94-7.46-14.73-.02-29.45-.1-44.18,.03-10.81,.1-19.7,7.84-21.76,18.59-1.95,10.15,4,20.78,13.83,24.79,1.09,.44,2.11,1.05,3.16,1.58h-51c.22-.24,.41-.64,.67-.69,10.72-2.18,18.15-11.26,18.03-22.07-.14-12.71-10.24-22.2-23.73-22.23-12.35-.03-24.69,0-37.15,0,.14-1,.2-1.74,.35-2.47,3.03-14.38-7.2-27.45-21.85-27.49-36.58-.11-73.16-.07-109.75,0-9.41,.02-17.34,5.68-20.84,14.42-.39,.98-.99,1.87-1.49,2.8Zm298.14-24.77c4.47,10.57,12.49,15.62,24.05,15.18,4.24-.16,8.5,.04,12.74-.08,11.54-.34,20.95-8.94,22.01-20.05,1.12-11.71-6.39-21.84-18.05-24.39-.56-.12-1.09-.38-1.65-.58,.14-.6,.17-.98,.31-1.3,13.86-31.98-6.74-66.87-38.64-72.38-.81-.14-1.94-1.18-2.1-1.96-1.57-7.77-2.96-15.58-4.44-23.54,27.43-19.95,35.67-54.17,24.96-82.32-10.84-28.49-38.91-47.15-68.94-45.64-15.13,.77-28.81,5.69-40.68,15.2-15.9,12.73-24.63,29.43-26.71,49.58-28.54,6.26-50.17,21.84-65.23,46.71-10.7-3.27-21.52-4.71-32.57-3.02-30.85,4.72-52.21,21.78-61.73,51.32-9.44,29.28-2.25,55.6,19.9,77.12,14.53,14.12,32.44,20.45,52.73,20.35,25.49-.13,50.98-.03,76.55-.03,4.86,11.21,13.59,15.33,25.47,15.1,19.99-.38,39.99-.34,59.98-.01,11.64,.19,20.01-4.17,24.88-15.25h17.14Zm36-148.7c-4.57,.33-6.96,2-8.03,5.35-1.1,3.4-.1,6.41,2.79,8.19,5.6,3.45,11.38,6.67,17.26,9.62,3.02,1.52,6.18,.78,8.49-1.87,2.28-2.62,3.06-6.2,.76-8.57-6.14-6.31-14.35-9.37-21.26-12.71ZM154.77,53.28c-4.12-.18-7.09,1.87-8.19,5.09-1.11,3.26,.06,6.8,3.29,8.71,5.14,3.04,10.38,5.92,15.65,8.72,4.23,2.25,8.6,1.03,10.63-2.76,2.05-3.82,.7-7.97-3.56-10.42-4.85-2.79-9.78-5.47-14.71-8.12-1.18-.64-2.51-.99-3.11-1.23Zm211.44,31.37c-.07-4.99-3.94-8.85-8.1-7.88-6.77,1.58-13.47,3.53-20.04,5.81-3.66,1.27-5.01,5.46-3.7,9.06,1.32,3.63,4.88,5.79,8.61,4.83,6.02-1.56,12-3.25,17.93-5.12,3.41-1.07,5.29-3.59,5.31-6.7Zm-76.88-52.72c.11,4.69,1.84,7.16,5.11,8.24,3.45,1.15,6.61,.18,8.49-2.93,3.34-5.53,6.52-11.18,9.41-16.96,1.59-3.17,.87-6.42-1.97-8.78-2.67-2.23-6.23-2.92-8.59-.54-6.11,6.16-9.13,14.26-12.45,20.97Z"/>
      <path class="cls-2" d="M0,326.25c.5-.93,1.1-1.82,1.49-2.8,3.5-8.74,11.42-14.4,20.84-14.42,36.58-.07,73.16-.1,109.75,0,14.64,.04,24.87,13.12,21.85,27.49-.15,.73-.21,1.47-.35,2.47,12.45,0,24.8-.02,37.15,0,13.49,.03,23.6,9.52,23.73,22.23,.12,10.81-7.32,19.89-18.03,22.07-.26,.05-.45,.45-.67,.69H77.25c-1.06-.53-2.09-1.1-3.17-1.58-7.66-3.35-12.48-9.1-13.83-17.32-.58-3.55-.1-7.28-.1-11.11-12.23,0-24.83,.05-37.43-.02-9.86-.05-17.7-5.58-21.32-14.79-.34-.86-.92-1.63-1.39-2.44,0-3.5,0-7,0-10.5Zm77.63-2.25c-13.99,0-27.99,0-41.98,0-4.37,0-8.75-.1-13.12,.04-4.32,.13-7.42,3.28-7.51,7.3-.09,4.17,3.1,7.39,7.57,7.64,1,.05,2,.02,3,.02,17.87,0,35.74,0,53.6,0,1,0,2-.03,3,.01,4.3,.21,7.51,3.2,7.7,7.17,.19,3.93-2.77,7.19-7.07,7.79-5.52,.77-8.35,3.84-7.83,8.46,.47,4.16,3.7,6.56,8.96,6.56,35.49,.01,70.97,0,106.46,0,.87,0,1.77,.06,2.62-.1,3.41-.67,5.61-2.75,6.26-6.14,.6-3.11-.55-5.84-3.29-7.36-1.64-.91-3.76-1.33-5.67-1.34-18.37-.1-36.73-.06-55.1-.06-1,0-2,.03-3-.02-4.33-.22-7.5-3.19-7.68-7.18-.18-3.98,2.72-7.18,7.06-7.78,4.82-.67,7.39-2.83,7.85-6.59,.59-4.85-2.99-8.41-8.61-8.42-17.74-.03-35.49-.01-53.23-.01Z"/>
      <path class="cls-2" d="M349.41,346.48c1.36-5.71,3.53-7.45,9.33-7.48,13.35-.08,20.49,5.04,24.68,17.65,.05,.16,.38,.24,.58,.35v9.75c-1.59,2.85-3,5.83-4.83,8.51-3.33,4.89-8.56,6.97-13.92,8.74h-118.5c-1.05-.53-2.08-1.14-3.16-1.58-9.83-4.01-15.77-14.64-13.83-24.79,2.06-10.74,10.95-18.49,21.76-18.59,14.72-.14,29.45-.05,44.18-.03,5.5,0,7.81,1.98,8.94,7.46-1.1,5.5-3.42,7.5-8.9,7.52-7.24,.03-14.49,0-21.73,0-7.37,0-14.74-.09-22.1,.05-4.32,.08-7.36,3.29-7.4,7.36-.04,4.07,2.97,7.23,7.23,7.56,.62,.05,1.25,.03,1.87,.03,35.47,0,70.93,0,106.4,0,.75,0,1.51,.03,2.25-.06,3.82-.48,6.66-3.59,6.73-7.31,.07-3.87-2.86-7.14-6.85-7.57-1.11-.12-2.25-.05-3.37-.05-5.82-.04-8-1.8-9.34-7.52Z"/>
      <path class="cls-7" d="M0,336.75c.47,.81,1.05,1.58,1.39,2.44,3.62,9.21,11.46,14.74,21.32,14.79,12.6,.07,25.2,.02,37.43,.02,0,3.83-.49,7.56,.1,11.11,1.35,8.22,6.18,13.97,13.83,17.32,1.08,.47,2.12,1.05,3.17,1.58H0C0,368.25,0,352.5,0,336.75Z"/>
      <path class="cls-1" d="M222.75,0c3.32,1.65,5.02,4.41,5.9,7.94,1.23,4.96,2.78,9.83,4.06,14.78,1.13,4.34-1.11,8.37-5.08,9.44-3.94,1.07-7.9-.97-9.19-5.09-1.86-5.95-3.56-11.95-5.1-17.98-1.12-4.38,1.66-6.92,4.91-9.09h4.5Z"/>
      <path class="cls-6" d="M365.25,384c5.36-1.77,10.59-3.85,13.92-8.74,1.83-2.69,3.23-5.67,4.83-8.51v17.25h-18.75Z"/>
      <path class="cls-4" d="M298.14,301.48h-17.14c-4.88,11.07-13.24,15.44-24.88,15.25-19.99-.33-39.99-.37-59.98,.01-11.88,.23-20.61-3.89-25.47-15.1-25.57,0-51.06-.1-76.55,.03-20.28,.1-38.19-6.23-52.73-20.35-22.15-21.52-29.34-47.83-19.9-77.12,9.52-29.54,30.88-46.6,61.73-51.32,11.05-1.69,21.87-.24,32.57,3.02,15.06-24.87,36.69-40.45,65.23-46.71,2.08-20.15,10.81-36.85,26.71-49.58,11.87-9.5,25.54-14.43,40.68-15.2,30.03-1.52,58.1,17.14,68.94,45.64,10.71,28.15,2.47,62.37-24.96,82.32,1.47,7.96,2.87,15.77,4.44,23.54,.16,.78,1.29,1.82,2.1,1.96,31.9,5.5,52.5,40.4,38.64,72.38-.14,.32-.17,.7-.31,1.3,.56,.2,1.09,.46,1.65,.58,11.66,2.55,19.17,12.68,18.05,24.39-1.06,11.1-10.46,19.71-22.01,20.05-4.25,.12-8.5-.08-12.74,.08-11.57,.44-19.58-4.61-24.05-15.18ZM129.83,162.23c14.66,8.84,25.28,20.9,31.76,36.54,2.7,6.53,1.65,10.83-3.07,12.71-4.57,1.82-8.17-.47-10.75-6.84-10.67-26.4-38.86-41.86-66.4-36.41-28.34,5.61-48.45,29.78-48.59,58.4-.16,32.67,25.77,59.49,58.4,59.89,25.62,.32,51.24,.12,76.86,.01,1.24,0,3.05-1,3.62-2.06,4.69-8.64,11.88-12.85,21.63-12.85,21.62,0,43.24,0,64.86,0,9.89,0,17.26,4.13,21.82,13.07,.42,.82,1.52,1.84,2.3,1.84,4.73-.04,9.48-.22,14.19-.65,1.1-.1,2.51-1.1,3.07-2.09,4.01-7.02,9.96-10.94,17.91-12.14,1.26-.19,2.83-1.11,3.48-2.17,7.38-11.98,8.28-24.51,1.81-37.04-6.44-12.48-17-19.26-31.11-20.24-7.99-.55-15.31,1.51-22.1,5.7-2.8,1.73-5.72,1.78-8.46-.08-2.63-1.79-3.94-4.59-2.91-7.49,.76-2.14,2.48-4.57,4.43-5.55,6.06-3.02,12.44-5.42,18.89-8.14-1.61-29.28-23.02-61.89-62.12-71.92-34.33-8.8-73.43,7.67-89.5,37.51Zm155.85-4.13c16.13-11.33,27.11-37.19,17.76-62.44-9.19-24.84-34.32-39.51-60.88-35.59-23.4,3.45-44.28,24.79-45.9,46.98,39.07,.6,68.8,17.56,89.02,51.04Zm-59.9,143.53c10.61,0,21.22,.02,31.82-.03,1.6,0,3.29-.08,4.77-.6,3.31-1.17,5.16-4.7,4.56-8.12-.66-3.81-3.86-6.24-8.53-6.24-21.59-.03-43.18-.03-64.77,0-5.58,0-9.18,3.11-9.08,7.7,.11,4.5,3.48,7.27,9.03,7.29,10.73,.03,21.47,0,32.2,.01Zm100.97-.05h0c2.62,.01,5.24,.11,7.85,0,4.23-.19,7.16-3.01,7.4-6.92,.25-4.03-2.6-7.67-6.81-7.9-5.46-.29-10.97-.3-16.43,.02-4.01,.23-6.85,3.84-6.7,7.66,.15,3.9,3.1,6.9,7.22,7.13,2.48,.14,4.98,.03,7.47,.03Z"/>
      <path class="cls-10" d="M349.41,346.48c1.34,5.72,3.53,7.48,9.34,7.52,1.12,0,2.26-.06,3.37,.05,3.99,.42,6.92,3.7,6.85,7.57-.07,3.73-2.91,6.83-6.73,7.31-.74,.09-1.5,.06-2.25,.06-35.47,0-70.93,0-106.4,0-.62,0-1.25,.02-1.87-.03-4.26-.33-7.27-3.49-7.23-7.56,.04-4.07,3.08-7.28,7.4-7.36,7.37-.14,14.74-.05,22.1-.05,7.24,0,14.49,.02,21.73,0,5.48-.02,7.8-2.02,8.9-7.52,4.92,0,9.85,0,14.77,0,1.18,5.1,3.81,7.61,7.84,7.51,3.95-.1,6.43-2.63,7.4-7.51,4.92,0,9.85,0,14.77,0Z"/>
      <path class="cls-1" d="M334.15,152.78c6.91,3.34,15.12,6.4,21.26,12.71,2.3,2.37,1.53,5.95-.76,8.57-2.31,2.65-5.47,3.39-8.49,1.87-5.88-2.95-11.66-6.17-17.26-9.62-2.88-1.78-3.88-4.79-2.79-8.19,1.08-3.35,3.46-5.02,8.03-5.35Z"/>
      <path class="cls-1" d="M154.77,53.28c.61,.23,1.93,.59,3.11,1.23,4.93,2.66,9.85,5.33,14.71,8.12,4.26,2.45,5.61,6.6,3.56,10.42-2.03,3.79-6.4,5.01-10.63,2.76-5.27-2.81-10.51-5.68-15.65-8.72-3.23-1.91-4.4-5.45-3.29-8.71,1.1-3.23,4.07-5.27,8.19-5.09Z"/>
      <path class="cls-1" d="M366.21,84.65c-.01,3.11-1.89,5.63-5.31,6.7-5.93,1.86-11.92,3.56-17.93,5.12-3.72,.96-7.29-1.2-8.61-4.83-1.31-3.6,.04-7.79,3.7-9.06,6.56-2.28,13.27-4.23,20.04-5.81,4.16-.97,8.03,2.89,8.1,7.88Z"/>
      <path class="cls-1" d="M289.33,31.92c3.32-6.7,6.34-14.81,12.45-20.97,2.35-2.37,5.91-1.69,8.59,.54,2.83,2.36,3.56,5.61,1.97,8.78-2.89,5.78-6.07,11.42-9.41,16.96-1.88,3.11-5.04,4.07-8.49,2.93-3.27-1.09-5-3.56-5.11-8.24Z"/>
      <path class="cls-3" d="M334.64,346.47c-.96,4.88-3.45,7.41-7.4,7.51-4.03,.1-6.65-2.41-7.84-7.51,1.21-5.12,3.77-7.57,7.83-7.47,3.95,.1,6.41,2.58,7.4,7.46Z"/>
      <path class="cls-9" d="M77.63,324c17.74,0,35.49-.02,53.23,.01,5.62,0,9.2,3.57,8.61,8.42-.46,3.76-3.04,5.92-7.85,6.59-4.34,.6-7.24,3.8-7.06,7.78,.18,3.99,3.34,6.96,7.68,7.18,1,.05,2,.02,3,.02,18.37,0,36.74-.04,55.1,.06,1.91,0,4.03,.43,5.67,1.34,2.74,1.52,3.88,4.25,3.29,7.36-.65,3.39-2.86,5.47-6.26,6.14-.85,.17-1.74,.1-2.62,.1-35.49,0-70.97,0-106.46,0-5.26,0-8.49-2.4-8.96-6.56-.53-4.63,2.31-7.69,7.83-8.46,4.31-.6,7.27-3.86,7.07-7.79-.19-3.97-3.4-6.96-7.7-7.17-1-.05-2-.01-3-.01-17.87,0-35.74,0-53.6,0-1,0-2,.04-3-.02-4.48-.25-7.66-3.47-7.57-7.64,.08-4.03,3.19-7.17,7.51-7.3,4.37-.14,8.75-.04,13.12-.04,13.99,0,27.99,0,41.98,0Z"/>
      <path class="cls-8" d="M129.83,162.23c16.07-29.84,55.17-46.31,89.5-37.51,39.11,10.03,60.51,42.64,62.12,71.92-6.45,2.72-12.83,5.11-18.89,8.14-1.95,.98-3.67,3.41-4.43,5.55-1.03,2.9,.28,5.7,2.91,7.49,2.74,1.87,5.66,1.81,8.46,.08,6.79-4.19,14.11-6.25,22.1-5.7,14.11,.98,24.67,7.76,31.11,20.24,6.47,12.53,5.57,25.06-1.81,37.04-.65,1.06-2.22,1.98-3.48,2.17-7.95,1.2-13.9,5.12-17.91,12.14-.56,.99-1.97,1.99-3.07,2.09-4.71,.43-9.45,.61-14.19,.65-.78,0-1.88-1.02-2.3-1.84-4.56-8.94-11.93-13.07-21.82-13.07-21.62,0-43.24,0-64.86,0-9.75,0-16.94,4.21-21.63,12.85-.57,1.06-2.38,2.05-3.62,2.06-25.62,.1-51.24,.3-76.86-.01-32.63-.4-58.56-27.22-58.4-59.89,.14-28.62,20.26-52.79,48.59-58.4,27.54-5.45,55.73,10,66.4,36.41,2.57,6.37,6.18,8.66,10.75,6.84,4.72-1.88,5.77-6.18,3.07-12.71-6.47-15.64-17.1-27.7-31.76-36.54Z"/>
      <path class="cls-5" d="M285.68,158.1c-20.22-33.49-49.95-50.44-89.02-51.04,1.63-22.19,22.51-43.53,45.9-46.98,26.56-3.92,51.69,10.76,60.88,35.59,9.35,25.25-1.63,51.11-17.76,62.44Z"/>
      <path class="cls-12" d="M225.78,301.64c-10.73,0-21.47,.02-32.2,0-5.54-.02-8.92-2.79-9.03-7.29-.11-4.58,3.5-7.69,9.08-7.7,21.59-.02,43.18-.02,64.77,0,4.67,0,7.87,2.43,8.53,6.24,.59,3.42-1.26,6.95-4.56,8.12-1.48,.52-3.17,.59-4.77,.6-10.61,.05-21.22,.03-31.82,.03Z"/>
      <path class="cls-11" d="M326.75,301.59c-2.49,0-4.99,.11-7.47-.03-4.12-.23-7.08-3.23-7.22-7.13-.15-3.81,2.7-7.43,6.7-7.66,5.46-.31,10.97-.31,16.43-.02,4.21,.23,7.06,3.87,6.81,7.9-.24,3.92-3.17,6.73-7.4,6.92-2.61,.12-5.23,.02-7.85,.02h0Z"/>
    </g>
  </g>
</svg>